<?xml version="1.0" encoding="UTF-8" standalone="no"?>
<!-- Generator: Adobe Illustrator 18.1.1, SVG Export Plug-In . SVG Version: 6.00 Build 0)  -->

<svg
   xmlns:dc="http://purl.org/dc/elements/1.1/"
   xmlns:cc="http://creativecommons.org/ns#"
   xmlns:rdf="http://www.w3.org/1999/02/22-rdf-syntax-ns#"
   xmlns:svg="http://www.w3.org/2000/svg"
   xmlns="http://www.w3.org/2000/svg"
   xmlns:xlink="http://www.w3.org/1999/xlink"
   xmlns:sodipodi="http://sodipodi.sourceforge.net/DTD/sodipodi-0.dtd"
   xmlns:inkscape="http://www.inkscape.org/namespaces/inkscape"
   version="1.1"
   id="Layer_1"
   x="0px"
   y="0px"
   viewBox="0 0 512 512"
   enable-background="new 0 0 512 512"
   xml:space="preserve"
   sodipodi:docname="bitzeny_electrum.svg"
   inkscape:version="0.92.2 5c3e80d, 2017-08-06"><metadata
     id="metadata51"><rdf:RDF><cc:Work
         rdf:about=""><dc:format>image/svg+xml</dc:format><dc:type
           rdf:resource="http://purl.org/dc/dcmitype/StillImage" /><dc:title /></cc:Work></rdf:RDF></metadata><defs
     id="defs49"><linearGradient
       inkscape:collect="always"
       id="linearGradient4720"><stop
         style="stop-color:#5cb7e6;stop-opacity:1;"
         offset="0"
         id="stop4716" /><stop
         style="stop-color:#207dcd;stop-opacity:1"
         offset="1"
         id="stop4718" /></linearGradient><linearGradient
       inkscape:collect="always"
       id="linearGradient4638"><stop
         style="stop-color:#5fb9e7;stop-opacity:1"
         offset="0"
         id="stop4634" /><stop
         style="stop-color:#207dcd;stop-opacity:1"
         offset="1"
         id="stop4636" /></linearGradient><radialGradient
       inkscape:collect="always"
       xlink:href="#linearGradient4638"
       id="radialGradient4640"
       cx="255.99998"
       cy="45.712173"
       fx="255.99998"
       fy="45.712173"
       r="225.69922"
       gradientTransform="matrix(0.70236881,0,0,0.51617369,76.193591,123.85953)"
       gradientUnits="userSpaceOnUse" /><radialGradient
       inkscape:collect="always"
       xlink:href="#linearGradient4638"
       id="radialGradient4652"
       gradientUnits="userSpaceOnUse"
       gradientTransform="matrix(-0.35118441,0.60826923,-0.44701953,-0.25808685,460.34021,166.35332)"
       cx="255.99998"
       cy="45.712173"
       fx="255.99998"
       fy="45.712173"
       r="225.69922" /><radialGradient
       inkscape:collect="always"
       xlink:href="#linearGradient4638"
       id="radialGradient4656"
       gradientUnits="userSpaceOnUse"
       gradientTransform="matrix(-0.3511844,-0.60826923,0.44701953,-0.25808684,231.4662,477.78715)"
       cx="255.99998"
       cy="45.712173"
       fx="255.99998"
       fy="45.712173"
       r="225.69922" /><radialGradient
       inkscape:collect="always"
       xlink:href="#linearGradient4720"
       id="radialGradient4722"
       cx="220.7121"
       cy="198.56708"
       fx="220.7121"
       fy="198.56708"
       r="60.83594"
       gradientTransform="matrix(1.435869,-5.5131732e-8,5.9547944e-8,1.5508863,-103.29259,-111.70496)"
       gradientUnits="userSpaceOnUse" /><radialGradient
       inkscape:collect="always"
       xlink:href="#linearGradient4720"
       id="radialGradient4901"
       gradientUnits="userSpaceOnUse"
       gradientTransform="matrix(1.435869,-5.5131732e-8,5.9547944e-8,1.5508863,-103.29259,-111.70496)"
       cx="220.7121"
       cy="198.56708"
       fx="220.7121"
       fy="198.56708"
       r="60.83594" /><radialGradient
       inkscape:collect="always"
       xlink:href="#linearGradient4720"
       id="radialGradient4903"
       gradientUnits="userSpaceOnUse"
       gradientTransform="matrix(1.435869,-5.5131732e-8,5.9547944e-8,1.5508863,-103.29259,-111.70496)"
       cx="220.7121"
       cy="198.56708"
       fx="220.7121"
       fy="198.56708"
       r="60.83594" /></defs><sodipodi:namedview
     pagecolor="#ffffff"
     bordercolor="#666666"
     borderopacity="1"
     objecttolerance="10"
     gridtolerance="10"
     guidetolerance="10"
     inkscape:pageopacity="0"
     inkscape:pageshadow="2"
     inkscape:window-width="1920"
     inkscape:window-height="1021"
     id="namedview47"
     showgrid="false"
     inkscape:zoom="0.5"
     inkscape:cx="-104.98696"
     inkscape:cy="88.621888"
     inkscape:window-x="0"
     inkscape:window-y="0"
     inkscape:window-maximized="1"
     inkscape:current-layer="Layer_1" /><g
     id="g16" /><g
     id="g18" /><g
     id="g20" /><g
     id="g22" /><g
     id="g24" /><g
     id="g26" /><g
     id="g28" /><g
     id="g30" /><g
     id="g32" /><g
     id="g34" /><g
     id="g36" /><g
     id="g38" /><g
     id="g40" /><g
     id="g42" /><g
     id="g44" /><g
     id="g869"
     inkscape:export-xdpi="96"
     inkscape:export-ydpi="96"><rect
       y="0"
       x="0"
       height="512"
       width="512"
       id="rect4753"
       style="opacity:1;fill:none;fill-opacity:1;stroke:none;stroke-width:2.96196318;stroke-miterlimit:4;stroke-dasharray:none;stroke-opacity:1" /><g
       transform="translate(5e-7,0.00780913)"
       style="fill:url(#radialGradient4722);fill-opacity:1;stroke:none;stroke-width:2.5;stroke-miterlimit:4;stroke-dasharray:none;stroke-opacity:1"
       id="g4712"><path
         inkscape:connector-curvature="0"
         style="opacity:1;fill:url(#radialGradient4901);fill-opacity:1;stroke:none;stroke-width:2.5;stroke-miterlimit:4;stroke-dasharray:none;stroke-opacity:1"
         d="m 259.20312,221.37695 -64.03906,94.35743 h 103.21485 l 18.45703,-35.34571 H 306.4707 l -17.33398,16.27539 h -60.81836 l 41.56836,-75.28711 z"
         id="path1175" /><path
         inkscape:connector-curvature="0"
         style="opacity:1;fill:url(#radialGradient4903);fill-opacity:1;stroke:none;stroke-width:2.5;stroke-miterlimit:4;stroke-dasharray:none;stroke-opacity:1"
         d="m 213.62109,196.25 -18.45703,35.3457 h 10.36524 l 17.33398,-16.27539 h 60.81836 l -41.56836,75.28711 h 10.6836 L 316.83594,196.25 Z"
         id="path1823" /></g><path
       inkscape:connector-curvature="0"
       id="ellipse4"
       d="m 256,139.5 c -60.8981,0 -116.10468,12.05993 -156.949219,32.22656 -40.844538,20.16664 -68.75,49.39137 -68.75,84.27344 0,34.88207 27.905462,64.1068 68.75,84.27344 C 139.89532,360.44007 195.1019,372.5 256,372.5 c 60.8981,0 116.10468,-12.05993 156.94922,-32.22656 40.84454,-20.16664 68.75,-49.39137 68.75,-84.27344 0,-34.88207 -27.90546,-64.1068 -68.75,-84.27344 C 372.10468,151.55993 316.8981,139.5 256,139.5 Z m 0,20 c 58.22972,0 110.8722,11.78137 148.0957,30.16016 37.22351,18.37878 57.60352,42.40358 57.60352,66.33984 0,23.93626 -20.38001,47.96106 -57.60352,66.33984 C 366.8722,340.71863 314.22972,352.5 256,352.5 197.77028,352.5 145.1278,340.71863 107.9043,322.33984 70.680792,303.96106 50.300781,279.93626 50.300781,256 c 0,-23.93626 20.380011,-47.96106 57.603519,-66.33984 C 145.1278,171.28137 197.77028,159.5 256,159.5 Z"
       style="color:#000000;font-style:normal;font-variant:normal;font-weight:normal;font-stretch:normal;font-size:medium;line-height:normal;font-family:sans-serif;font-variant-ligatures:normal;font-variant-position:normal;font-variant-caps:normal;font-variant-numeric:normal;font-variant-alternates:normal;font-feature-settings:normal;text-indent:0;text-align:start;text-decoration:none;text-decoration-line:none;text-decoration-style:solid;text-decoration-color:#000000;letter-spacing:normal;word-spacing:normal;text-transform:none;writing-mode:lr-tb;direction:ltr;text-orientation:mixed;dominant-baseline:auto;baseline-shift:baseline;text-anchor:start;white-space:normal;shape-padding:0;clip-rule:nonzero;display:inline;overflow:visible;visibility:visible;opacity:1;isolation:auto;mix-blend-mode:normal;color-interpolation:sRGB;color-interpolation-filters:linearRGB;solid-color:#000000;solid-opacity:1;vector-effect:none;fill:url(#radialGradient4640);fill-opacity:1;fill-rule:nonzero;stroke:none;stroke-width:3.5;stroke-linecap:butt;stroke-linejoin:miter;stroke-miterlimit:10;stroke-dasharray:none;stroke-dashoffset:0;stroke-opacity:1;color-rendering:auto;image-rendering:auto;shape-rendering:auto;text-rendering:auto;enable-background:accumulate" /><g
       transform="matrix(-1,0,0,1,512,0)"
       id="g4921"><path
         inkscape:connector-curvature="0"
         id="path4642"
         d="M 356.89196,314.25 C 387.34101,261.5107 404.50009,207.67043 407.45755,162.21471 410.415,116.75898 399.05837,77.97978 368.84961,60.53874 338.64085,43.09771 299.37876,52.65218 261.49167,77.94127 223.60459,103.23036 185.55709,145.0107 155.10804,197.75 c -30.44905,52.7393 -47.60813,106.57957 -50.56559,152.03529 -2.95745,45.45573 8.39918,84.23493 38.60794,101.67597 30.20876,17.44103 69.47085,7.88656 107.35794,-17.40253 C 288.39541,408.76964 326.44291,366.9893 356.89196,314.25 Z m -17.32051,-10 c -29.11486,50.42842 -65.63906,90.12746 -100.16731,113.17456 -34.52825,23.04711 -65.52434,28.68432 -86.25375,16.71619 -20.72941,-11.96813 -31.34549,-41.63014 -28.65023,-83.05603 2.69525,-41.42589 18.81353,-92.9063 47.92839,-143.33472 29.11486,-50.42842 65.63906,-90.12746 100.16731,-113.17456 34.52825,-23.04711 65.52434,-28.68432 86.25375,-16.71619 20.72941,11.96813 31.34549,41.63014 28.65023,83.05603 -2.69525,41.42589 -18.81353,92.9063 -47.92839,143.33472 z"
         style="color:#000000;font-style:normal;font-variant:normal;font-weight:normal;font-stretch:normal;font-size:medium;line-height:normal;font-family:sans-serif;font-variant-ligatures:normal;font-variant-position:normal;font-variant-caps:normal;font-variant-numeric:normal;font-variant-alternates:normal;font-feature-settings:normal;text-indent:0;text-align:start;text-decoration:none;text-decoration-line:none;text-decoration-style:solid;text-decoration-color:#000000;letter-spacing:normal;word-spacing:normal;text-transform:none;writing-mode:lr-tb;direction:ltr;text-orientation:mixed;dominant-baseline:auto;baseline-shift:baseline;text-anchor:start;white-space:normal;shape-padding:0;clip-rule:nonzero;display:inline;overflow:visible;visibility:visible;opacity:1;isolation:auto;mix-blend-mode:normal;color-interpolation:sRGB;color-interpolation-filters:linearRGB;solid-color:#000000;solid-opacity:1;vector-effect:none;fill:url(#radialGradient4652);fill-opacity:1;fill-rule:nonzero;stroke:none;stroke-width:3.5;stroke-linecap:butt;stroke-linejoin:miter;stroke-miterlimit:10;stroke-dasharray:none;stroke-dashoffset:0;stroke-opacity:1;color-rendering:auto;image-rendering:auto;shape-rendering:auto;text-rendering:auto;enable-background:accumulate" /><path
         style="color:#000000;font-style:normal;font-variant:normal;font-weight:normal;font-stretch:normal;font-size:medium;line-height:normal;font-family:sans-serif;font-variant-ligatures:normal;font-variant-position:normal;font-variant-caps:normal;font-variant-numeric:normal;font-variant-alternates:normal;font-feature-settings:normal;text-indent:0;text-align:start;text-decoration:none;text-decoration-line:none;text-decoration-style:solid;text-decoration-color:#000000;letter-spacing:normal;word-spacing:normal;text-transform:none;writing-mode:lr-tb;direction:ltr;text-orientation:mixed;dominant-baseline:auto;baseline-shift:baseline;text-anchor:start;white-space:normal;shape-padding:0;clip-rule:nonzero;display:inline;overflow:visible;visibility:visible;opacity:1;isolation:auto;mix-blend-mode:normal;color-interpolation:sRGB;color-interpolation-filters:linearRGB;solid-color:#000000;solid-opacity:1;vector-effect:none;fill:url(#radialGradient4656);fill-opacity:1;fill-rule:nonzero;stroke:none;stroke-width:3.5;stroke-linecap:butt;stroke-linejoin:miter;stroke-miterlimit:10;stroke-dasharray:none;stroke-dashoffset:0;stroke-opacity:1;color-rendering:auto;image-rendering:auto;shape-rendering:auto;text-rendering:auto;enable-background:accumulate"
         d="m 155.10804,314.25 c 30.44905,52.7393 68.49655,94.51964 106.38363,119.80873 37.88709,25.28909 77.14918,34.84356 107.35794,17.40253 C 399.05837,434.02022 410.415,395.24102 407.45755,349.78529 404.50009,304.32957 387.34101,250.4893 356.89196,197.75 326.44291,145.0107 288.39541,103.23036 250.50833,77.941269 212.62124,52.652178 173.35915,43.097706 143.15039,60.538742 112.94163,77.979778 101.585,116.75898 104.54245,162.21471 c 2.95746,45.45572 20.11654,99.29599 50.56559,152.03529 z m 17.32051,-10 c -29.11486,-50.42842 -45.23314,-101.90882 -47.92839,-143.33472 -2.69526,-41.42589 7.92082,-71.0879 28.65023,-83.05603 20.72941,-11.96813 51.7255,-6.33092 86.25375,16.716192 34.52825,23.047098 71.05245,62.746138 100.16731,113.174558 29.11486,50.42842 45.23314,101.90882 47.92839,143.33472 2.69526,41.42589 -7.92082,71.0879 -28.65023,83.05603 -20.72941,11.96813 -51.7255,6.33092 -86.25375,-16.71619 C 238.06761,394.37746 201.54341,354.67842 172.42855,304.25 Z"
         id="path4654"
         inkscape:connector-curvature="0" /></g></g></svg>